<?xml version="1.0" encoding="utf-8"?>
<!-- Generator: Adobe Illustrator 27.5.0, SVG Export Plug-In . SVG Version: 6.00 Build 0)  -->
<svg version="1.1" xmlns="http://www.w3.org/2000/svg" xmlns:xlink="http://www.w3.org/1999/xlink" x="0px" y="0px"
	 viewBox="0 0 500 500" style="enable-background:new 0 0 500 500;" xml:space="preserve">
<g id="BACKGROUND">
	<rect style="fill:#F5F5F5;" width="500" height="500"/>
</g>
<g id="OBJECTS">
	<g>
		<g>
			<path style="fill:#E0D5FF;" d="M423.786,142.669c-24.584-33.088-74.867-51.184-116.779-37.468
				C242.681,126.251,220.65,206.21,155.02,223.813c-28.26,7.58-60.707,1.984-86.358,14.953
				c-25.808,13.049-34.033,36.228-22.626,62.492c7.26,16.715,31.512,55.583,52.135,56.704c124.627,6.773,298.174,1.046,311.568,0
				C464.34,353.698,457.787,188.429,423.786,142.669z"/>
		</g>
		<path style="fill:#FFFFFF;" d="M285.213,118.191c-43.196,0-78.339,35.142-78.339,78.338c0,43.196,35.143,78.338,78.339,78.338
			c43.196,0,78.338-35.142,78.338-78.338C363.551,153.333,328.409,118.191,285.213,118.191z M224.834,196.529
			c0-33.292,27.085-60.378,60.379-60.378c12.784,0,24.644,4.005,34.415,10.811l-79.154,90.071
			C230.761,226.312,224.834,212.1,224.834,196.529z M285.213,256.906c-11.258,0-21.799-3.105-30.83-8.492l78.313-89.114
			c8.066,10.266,12.896,23.19,12.896,37.228C345.591,229.821,318.505,256.906,285.213,256.906z"/>
	</g>
	<g>
		<path style="fill:#BC96FF;" d="M78.61,283.269c1.93,0.695,3.679,1.366,3.656,1.512l2.707-6.449
			c-2.65,7.711-2.319,15.771,0.407,22.889l-2.217-5.426l-4.174,1.896c-2.624,1.192-3.785,4.286-2.593,6.91l1.741,3.833
			c1.202,2.646,4.337,3.808,6.966,2.57c1.856-0.874,3.567-1.635,3.655-1.516l-2.839-6.948c2.439,5.643,6.403,10.62,11.598,14.243
			l-0.337-0.141l-1.611,4.292c-1.013,2.698,0.354,5.707,3.053,6.72l3.942,1.479c2.721,1.021,5.759-0.374,6.743-3.109
			c0.695-1.93,1.366-3.679,1.512-3.656l-0.345-0.145c3.952,0.751,7.926,0.767,11.757,0.123l1.498,3.298
			c1.192,2.624,4.286,3.785,6.91,2.593l3.833-1.741c2.646-1.202,3.807-4.337,2.57-6.966c-0.486-1.032-0.931-2.008-1.215-2.697
			c3.351-2.312,6.301-5.242,8.658-8.704l2.488,0.934c2.699,1.013,5.707-0.354,6.72-3.053l1.479-3.942
			c1.021-2.721-0.374-5.759-3.109-6.743c-0.793-0.285-1.547-0.564-2.168-0.807c0.681-4.265,0.507-8.539-0.412-12.616l2.2-0.999
			c2.624-1.192,3.785-4.286,2.593-6.91l-1.742-3.833c-1.202-2.646-4.337-3.808-6.966-2.57c-0.856,0.403-1.673,0.778-2.322,1.058
			c-2.491-3.22-5.588-6.008-9.198-8.18l1.054-2.808c1.013-2.699-0.354-5.707-3.053-6.72l-3.942-1.479
			c-2.721-1.021-5.759,0.374-6.743,3.109c-0.492,1.367-0.969,2.629-1.259,3.25c-3.897-0.393-7.777-0.088-11.479,0.838l-1.685-3.708
			c-1.192-2.624-4.286-3.785-6.91-2.593l-3.834,1.741c-2.646,1.202-3.808,4.337-2.569,6.966c0.874,1.856,1.635,3.567,1.516,3.655
			l2.208-0.902c-4.384,3.089-8.066,7.249-10.601,12.277l1.239-2.951l-4.293-1.611c-2.699-1.013-5.707,0.354-6.72,3.052l-1.479,3.942
			C74.48,279.247,75.876,282.285,78.61,283.269z M123.925,270.06c10.572,3.967,15.945,15.797,11.978,26.369
			c-3.967,10.572-15.797,15.946-26.369,11.978c-10.572-3.967-15.946-15.797-11.978-26.369
			C101.523,271.467,113.353,266.093,123.925,270.06z"/>
		<g>
			<path style="fill:#29025B;" d="M157.862,243.217l71.104-0.738c0,0,40.648-95.775-18.275-108.982
				C151.766,120.29,157.862,243.217,157.862,243.217z"/>
			<g>
				<path style="fill:#43008A;" d="M126.958,260.767c-0.217-0.147,6.435-21.674,44.464-17.804l57.544-0.484l10.089,1.016
					l6.836,43.472l9.188,71.769l-129.111-1.451C125.967,357.285,126.968,260.774,126.958,260.767z"/>
				<path style="fill:#43008A;" d="M228.408,248.113c-2.021,6.021,3.274,37.716,16.824,56.06
					c13.55,18.344,40.436,37.122,49.781,43.685c11.317,7.95,30.197-13.951,15.469-31.693
					c-10.771-12.976-53.138-61.207-60.816-68.381C239.402,238.194,228.408,248.113,228.408,248.113z"/>
				<path style="fill:#E68C73;" d="M174.449,245.332c9.382,17.858,29.817,15.828,30.328-0.31l5.934-27.195l-28.834-5.684
					l-7.843,29.48C173.703,242.863,173.831,244.154,174.449,245.332z"/>
				<polygon style="opacity:0.64;fill-rule:evenodd;clip-rule:evenodd;fill:#E68C73;" points="203.686,249.415 180.672,216.291 
					182.133,211.285 213.316,216.209 205.798,241.965 				"/>
				<path style="fill:#E68C73;" d="M180.453,145.461c8.433-3.437,24.354-1.851,32.822-0.573c7.925,1.196,15.339,5.741,19.98,12.28
					c5.318,7.493,4.802,14.505,3.396,23.039c-0.727,4.412-5.363,12.198-2.483,17.436c1.045,1.9,1.257,14.447-6.316,23.949
					c-1.886,2.367-2.628,6.875-4.767,9.013c-1.785,1.783-2.938,2.522-5.754,2.631c-3.873,0.15-7.776-0.606-11.573-1.201
					c-0.426-0.067-0.426-0.067-1.259-0.194c-2.013-0.308-1.158,0.145-3.015-0.643c-14.133-2.696-23.204-18.203-24.511-32.425
					l-6.743-34.202C169.997,156.999,172.858,148.557,180.453,145.461z"/>
				<polygon style="opacity:0.58;fill:#E68C73;" points="218.582,190.786 222.731,207.03 216.866,206.665 				"/>
				<path style="fill:#2D1147;" d="M185.389,160.632c-1.413-4.462-5.084-7.686-8.44-10.747c-2.522-2.301-5.008-4.565-7.261-7.068
					c-0.392,0.022-0.785,0.037-1.177,0.059c-7.585,5.768-11.918,19.384-13.454,27.067c-1.145,5.725-0.316,11.599,1.848,17.125
					c3.327,8.495,9.809,16.165,17.128,21.2c0.002,0.001,6.112,4.204,6.112,4.204s-6.801-16.73-0.762-16.276
					c-2.693-0.203,2.786-16.804,3.212-17.905c1.983-5.13,3.918-10.589,3.611-16.059
					C185.869,161.781,185.586,161.256,185.389,160.632z"/>
				<g>
					<path style="fill:#E68C73;" d="M180.317,191.449c1.679,5.726-0.219,11.034-4.237,11.855c-4.018,0.822-8.635-3.154-10.314-8.88
						c-1.678-5.726,0.219-11.034,4.237-11.855C174.021,181.747,178.639,185.723,180.317,191.449z"/>
					<path style="fill-rule:evenodd;clip-rule:evenodd;fill:#E68C73;" d="M176.335,188.544c-0.349-1.305-0.898-2.435-2.384-3.131
						c-1.489-0.695-3.951-0.498-5.052,3.761c-1.102,4.259,1.069,8.696,3.548,8.757c0.786,0.019,1.463-0.914,2.024-2.201
						c-1.317-0.746-1.79-2.553-1.046-4.2c0.557-1.235,1.65-2.051,2.782-2.207C176.291,188.839,176.335,188.544,176.335,188.544z"/>
				</g>
				<path style="fill:#8B2AE3;" d="M154.163,179.376c0,0,18.846,5.34,34.939,1.129c13.605-3.56,19.501-1.588,27.512,4.184
					c4.419,3.182,7.547-2.161,11.583-2.745c1.891-0.273,7.823,1.922,7.175,5.506c0,0.001,1.312,6.771-0.212,13.036
					c0,0-6.289,5.091-10.451,0.811c-1.705-1.754-3.807-2.846-6.011-2.729c-1.458,0.077-2.933,0.474-3.789,1.582
					c0,0-8.952,5.522-21.742-3.313l-16.866-6.433l-19.745-2.686L154.163,179.376z"/>
				<g>
					<path style="fill:#29025B;" d="M208.154,191.792c-0.553,1.433-2.126,2.19-3.515,1.692c-1.388-0.498-2.065-2.063-1.514-3.496
						c0.552-1.432,2.125-2.189,3.513-1.691C208.028,188.795,208.706,190.36,208.154,191.792z"/>
				</g>
				<g>
					<path style="fill:#29025B;" d="M230.104,193.535c-0.514,1.332-1.977,2.036-3.269,1.573c-1.291-0.463-1.921-1.919-1.408-3.252
						c0.514-1.332,1.977-2.036,3.268-1.572C229.987,190.747,230.617,192.203,230.104,193.535z"/>
				</g>
				<g>
					<g>
						<path style="fill:#29025B;" d="M205.614,206.407c0.133,2.264,1.141,4.427,2.671,6.087c0.787,0.854,1.691,1.612,2.713,2.167
							c0.521,0.283,1.07,0.524,1.63,0.715c0.609,0.208,1.148,0.409,1.806,0.409c0.835-0.001,1.071-1.287,0.213-1.486
							c-0.519-0.12-1.071-0.131-1.58-0.267c-0.497-0.133-0.989-0.294-1.456-0.509c-0.944-0.435-1.855-0.994-2.622-1.698
							c-1.576-1.447-2.685-3.331-2.995-5.462C205.962,206.148,205.602,206.189,205.614,206.407L205.614,206.407z"/>
					</g>
				</g>
				<path style="fill:#2D1147;" d="M160.245,162.204c0,0,9.003-3.513,38.264,1.757c0,0,37.737,12.222,42.239-0.953
					c0,0,7.279-23.64-11.853-20.127c0,0,3.376-16.688-18.007-7.027l-7.878,5.27c0,0-18.007-11.418-31.511,3.513
					C157.994,159.57,160.245,162.204,160.245,162.204z"/>
				<path style="fill:#E68C73;" d="M130.652,359.617l106.709-4.702l-8.117-5.785c0,0-70.626-11.025-98.938-16.535
					C130.307,332.594,109.073,351.265,130.652,359.617z"/>
				<g>
					<path style="fill:#E68C73;" d="M268.759,349.249c0,0-3.373-3.647-2.52-4.506c0.851-0.855,10.056,0.814,11.423,0.335
						c1.294-1.527,0.316-3.519-1.126-4.372c-5.149-0.103-22.823-0.456-22.823-0.456L268.759,349.249z"/>
					<path style="fill:#E68C73;" d="M228.661,348.625c0.211-0.17,0.448-0.302,0.711-0.394c3.081-1.076,23.314-8.115,25.242-8.045
						c2.087,0.072,16.527,5.512,16.527,5.512l10.25,8.635c0,0-3.758,1.464-6.435-0.626c-2.164,0.479-6.239,1.112-9.64-3.555
						c-5.107-2.764-14.519,1-14.519,1s-9.835,4.22-13.97,3.694l-7.509-1.752c-0.595-0.076-1.144-0.349-1.542-0.77l0,0
						c-0.889-0.939-0.801-2.346,0.197-3.148L228.661,348.625z"/>
				</g>
				<path style="fill:#43008A;" d="M126.863,259.996c-4.399,22.437-15.776,97.618-4.559,101.069l105.657-2.032l4.064-17.271
					l-73.577-7.321l8.662-67.849l-27.283-18.357C136.742,247.007,127.974,254.332,126.863,259.996z"/>
				<g>
					<g>
						<path style="fill:#29025B;" d="M200.662,174.244c2.582,1.061,5.095,2.274,7.566,3.573c1.199,0.631,2.378,1.297,3.555,1.968
							c1.239,0.706,2.518,1.399,3.648,2.271c0.875,0.676,2.198,0.048,2.581-0.842c0.461-1.069-0.149-2.052-1.162-2.454
							c-1.209-0.48-2.383-1.135-3.581-1.674c-1.355-0.61-2.732-1.174-4.118-1.709c-2.641-1.02-5.342-1.881-8.065-2.658
							C200.084,172.432,199.743,173.867,200.662,174.244L200.662,174.244z"/>
					</g>
				</g>
				<g>
					<path style="fill:#29025B;" d="M221.34,178.637l12.278-2.864c0.508-0.118,1.015,0.197,1.134,0.705
						c0.102,0.438-0.119,0.876-0.508,1.064l-11.346,5.496c-1.167,0.566-2.572,0.078-3.137-1.09c-0.565-1.167-0.077-2.572,1.09-3.137
						C221.006,178.734,221.179,178.675,221.34,178.637z"/>
				</g>
			</g>
			<g>
				<g>
					<path style="fill:#43008A;" d="M163.366,282.073c-1.296,14.232-2.597,28.463-3.884,42.696
						c-0.366,4.055-0.725,8.11-1.102,12.163c-0.052,0.557,0.828,0.571,0.872,0.011c1.136-14.236,2.342-28.467,3.506-42.701
						c0.332-4.055,0.664-8.11,0.996-12.165C163.775,281.828,163.389,281.825,163.366,282.073L163.366,282.073z"/>
				</g>
			</g>
			<g>
				<g>
					<path style="fill:#43008A;" d="M157.063,332.412c7.325,1.167,14.708,2.01,22.063,2.965c7.425,0.964,14.849,1.928,22.274,2.891
						c4.205,0.546,8.411,1.103,12.622,1.597c0.476,0.056,0.473-0.677,0.009-0.74c-14.743-2.015-29.536-3.708-44.302-5.54
						c-4.203-0.522-8.408-1.068-12.624-1.467C156.938,332.101,156.893,332.385,157.063,332.412L157.063,332.412z"/>
				</g>
			</g>
			<g>
				<g>
					<path style="fill:#43008A;" d="M248.357,281.423c-0.257,10.563,0.118,21.174,0.638,31.724c0.146,2.972,0.318,5.942,0.527,8.91
						c0.036,0.509,0.834,0.525,0.799,0.01c-0.722-10.562-1.245-21.127-1.487-31.712c-0.068-2.976-0.084-5.953-0.155-8.928
						C248.674,281.22,248.362,281.215,248.357,281.423L248.357,281.423z"/>
				</g>
			</g>
			<path style="fill:#43008A;" d="M153.798,244.233l26.555,10.776c0,0-37.73-106.274,29.321-107.29c0,0,49.799-2.605,16.285,94.646
				l3.006,0.113c0,0,30.52-70.668,13.249-94.035c-23.058-31.196-65.363-39.847-90.761-2.258
				c-21.879,32.381-2.147,81.342,1.403,94.707C153.428,243.044,153.798,244.233,153.798,244.233z"/>
		</g>
	</g>
	<g>
		<g>
			<g>
				<g>
					
						<rect x="41.9" y="342.077" transform="matrix(-1 -1.224647e-16 1.224647e-16 -1 136.7815 696.7496)" style="fill:#8B2AE3;" width="52.981" height="12.595"/>
					
						<rect x="38.07" y="348.517" transform="matrix(-1 -1.224647e-16 1.224647e-16 -1 129.1215 697.8884)" style="fill:#8B2AE3;" width="52.981" height="0.855"/>
					
						<rect x="38.07" y="348.931" transform="matrix(-1 -1.224647e-16 1.224647e-16 -1 129.1215 698.717)" style="fill:#8B2AE3;" width="52.981" height="0.855"/>
					
						<rect x="46.078" y="345.901" transform="matrix(-1 -1.224647e-16 1.224647e-16 -1 145.1379 692.6574)" style="fill:#8B2AE3;" width="52.981" height="0.855"/>
					
						<rect x="38.07" y="345.901" transform="matrix(-1 -1.224647e-16 1.224647e-16 -1 129.1215 692.6574)" style="fill:#8B2AE3;" width="52.981" height="0.855"/>
				</g>
				<path style="fill:none;stroke:#2D1147;stroke-width:1.8768;stroke-miterlimit:10;" d="M92.339,348.944
					c-16.023,0-31.873,0-47.896,0"/>
				<path style="fill:none;stroke:#2D1147;stroke-width:1.8768;stroke-miterlimit:10;" d="M92.339,345.031
					c-15.965,0-31.93,0-47.896,0"/>
				<path style="fill:none;stroke:#2D1147;stroke-width:1.8768;stroke-miterlimit:10;" d="M77.301,353.161
					c-5.94,0-11.881,0-17.822,0"/>
				<path style="fill:none;stroke:#2D1147;stroke-width:1.8768;stroke-miterlimit:10;" d="M58.938,353.161c-2.495,0-4.989,0-7.484,0
					"/>
			</g>
		</g>
		<g>
			<path style="fill:#5754B5;" d="M452.175,334.111l-56.604-0.487c-2.683-0.023-4.839-2.217-4.815-4.899l0.641-74.563
				c0.023-2.683,2.216-4.838,4.899-4.815l56.604,0.487c2.683,0.023,4.839,2.216,4.815,4.899l-0.641,74.563
				C457.051,331.978,454.857,334.134,452.175,334.111z"/>
			
				<rect x="396.339" y="253.328" transform="matrix(1 0.0086 -0.0086 1 2.5244 -3.6386)" style="fill:#FFFFFF;" width="56.061" height="76.804"/>
			<g>
				
					<rect x="406.87" y="265.928" transform="matrix(1 0.0086 -0.0086 1 2.3076 -3.6629)" style="fill:#43008A;" width="40.665" height="1.306"/>
				
					<rect x="407.218" y="271.729" transform="matrix(1 0.0086 -0.0086 1 2.3582 -3.6667)" style="fill:#43008A;" width="40.665" height="1.306"/>
				
					<rect x="406.969" y="277.462" transform="matrix(1 0.0086 -0.0086 1 2.4075 -3.6644)" style="fill:#43008A;" width="40.665" height="1.306"/>
				
					<rect x="407.318" y="283.263" transform="matrix(1 0.0086 -0.0086 1 2.4574 -3.6671)" style="fill:#43008A;" width="40.665" height="1.306"/>
				
					<rect x="407.065" y="289.46" transform="matrix(1 0.0086 -0.0086 1 2.5092 -3.6626)" style="fill:#43008A;" width="40.665" height="1.306"/>
				
					<rect x="407.414" y="295.261" transform="matrix(1 0.0086 -0.0086 1 2.5598 -3.6665)" style="fill:#43008A;" width="40.665" height="1.306"/>
				
					<rect x="407.165" y="300.994" transform="matrix(1 0.0086 -0.0086 1 2.6091 -3.6641)" style="fill:#43008A;" width="40.665" height="1.306"/>
				
					<rect x="407.513" y="306.795" transform="matrix(1 0.0086 -0.0086 1 2.659 -3.6669)" style="fill:#43008A;" width="40.665" height="1.306"/>
				
					<rect x="407.263" y="312.769" transform="matrix(1 0.0086 -0.0086 1 2.7096 -3.6635)" style="fill:#43008A;" width="40.665" height="1.306"/>
				
					<rect x="407.611" y="318.57" transform="matrix(1 0.0086 -0.0086 1 2.7602 -3.6673)" style="fill:#43008A;" width="40.665" height="1.306"/>
			</g>
			<g>
				
					<rect x="400.039" y="265.727" transform="matrix(-1 -0.0086 0.0086 -1 803.6267 536.2141)" style="fill:#43008A;" width="5.853" height="1.306"/>
				
					<rect x="399.932" y="271.524" transform="matrix(-1 -0.0086 0.0086 -1 803.3673 547.8002)" style="fill:#43008A;" width="5.853" height="1.306"/>
				
					<rect x="399.911" y="277.26" transform="matrix(-1 -0.0086 0.0086 -1 803.272 559.2771)" style="fill:#43008A;" width="5.853" height="1.306"/>
				
					<rect x="399.804" y="283.057" transform="matrix(-1 -0.0086 0.0086 -1 803.008 570.8702)" style="fill:#43008A;" width="5.853" height="1.306"/>
				
					<rect x="399.779" y="289.255" transform="matrix(-1 -0.0086 0.0086 -1 802.9055 583.2666)" style="fill:#43008A;" width="5.853" height="1.306"/>
				
					<rect x="399.672" y="295.052" transform="matrix(-1 -0.0086 0.0086 -1 802.6414 594.8596)" style="fill:#43008A;" width="5.853" height="1.306"/>
				
					<rect x="399.652" y="300.787" transform="matrix(-1 -0.0086 0.0086 -1 802.5457 606.3367)" style="fill:#43008A;" width="5.853" height="1.306"/>
				
					<rect x="399.544" y="306.585" transform="matrix(-1 -0.0086 0.0086 -1 802.2867 617.9228)" style="fill:#43008A;" width="5.853" height="1.306"/>
				
					<rect x="399.522" y="312.56" transform="matrix(-1 -0.0086 0.0086 -1 802.1844 629.8799)" style="fill:#43008A;" width="5.853" height="1.306"/>
				
					<rect x="399.414" y="318.357" transform="matrix(-1 -0.0086 0.0086 -1 801.9256 641.466)" style="fill:#43008A;" width="5.853" height="1.306"/>
			</g>
			<rect x="407.786" y="243.551" style="fill:#5754B5;" width="34.683" height="12.664"/>
			<rect x="407.783" y="249.883" style="fill:#43008A;" width="34.683" height="6.332"/>
		</g>
		<g>
			<g>
				<path style="fill:#2D1147;" d="M229.57,352.252h169.54v6.756H223.727v-0.913C223.727,354.868,226.343,352.252,229.57,352.252z"
					/>
				<path style="fill:#2D1147;" d="M287.771,352.252H399.11v2.926c0,2.116-1.715,3.831-3.831,3.831H287.771V352.252z"/>
				<path style="fill:#2D1147;" d="M395.937,353.888H289.241c-1.492,0-2.702-1.21-2.702-2.702l13.351-81.191
					c0-1.492,1.21-2.702,2.702-2.702h106.696c1.492,0,2.702,1.21,2.702,2.702l-13.351,81.191
					C398.639,352.678,397.43,353.888,395.937,353.888z"/>
				<path style="fill:#2D1147;" d="M397.624,352.308H290.928c-1.492,0-2.702-1.21-2.702-2.702l13.351-81.19
					c0-1.492,1.21-2.702,2.702-2.702h106.696c1.492,0,2.702,1.21,2.702,2.702l-13.351,81.19
					C400.326,351.099,399.117,352.308,397.624,352.308z"/>
				<path style="opacity:0.75;fill:#FFFFFF;" d="M354.018,300.327c-0.903-0.249-1.85-0.392-2.832-0.392
					c-5.885,0-10.655,4.771-10.655,10.655c0,5.885,4.771,10.656,10.655,10.656c5.885,0,10.656-4.771,10.656-10.656
					c0-0.032-0.005-0.063-0.005-0.095C357.358,309.262,354.061,305.188,354.018,300.327z"/>
			</g>
			<rect x="33.62" y="356.953" style="fill:#8B2AE3;" width="425.708" height="7.45"/>
		</g>
	</g>
	<g>
		<g>
			<path style="fill:#BC96FF;" d="M137.594,238.282H83.491c-2.882,0-4.759-3.029-3.477-5.61l26.877-54.103
				c1.424-2.865,5.507-2.876,6.946-0.018l27.226,54.104C142.362,235.236,140.485,238.282,137.594,238.282z"/>
			<path style="fill:#FFFFFF;" d="M128.133,232.968h-35.82c-1.908,0-3.151-2.006-2.302-3.714l17.795-35.82
				c0.942-1.897,3.646-1.904,4.599-0.012l18.026,35.82C131.29,230.951,130.047,232.968,128.133,232.968z"/>
			<g>
				<polygon style="fill:#43008A;" points="112.741,221.138 108.206,221.138 106.883,205.391 114.726,205.391 				"/>
				<path style="fill:#43008A;" d="M112.457,225.495c0,1.156-0.938,2.094-2.094,2.094c-1.156,0-2.094-0.937-2.094-2.094
					c0-1.157,0.937-2.094,2.094-2.094C111.52,223.401,112.457,224.339,112.457,225.495z"/>
			</g>
		</g>
		<g>
			<g>
				<path style="fill:#8B2AE3;" d="M428.195,234.073H294.732c-6.618,0-11.982-5.365-11.982-11.982v-28.687
					c0-6.618,5.365-11.982,11.982-11.982h133.463c6.618,0,11.982,5.365,11.982,11.982v28.687
					C440.177,228.708,434.813,234.073,428.195,234.073z"/>
				<path style="fill:#FFFFFF;" d="M421.162,221.769h-85.19c-3.525,0-6.382-2.857-6.382-6.382v-15.279
					c0-3.525,2.857-6.382,6.382-6.382h85.19c3.525,0,6.382,2.857,6.382,6.382v15.279
					C427.544,218.912,424.687,221.769,421.162,221.769z"/>
				<g>
					<path style="fill:#43008A;" d="M348.649,207.812c0,2.814-2.282,5.096-5.096,5.096c-2.815,0-5.096-2.281-5.096-5.096
						c0-2.814,2.281-5.096,5.096-5.096C346.367,202.716,348.649,204.997,348.649,207.812z"/>
					<path style="fill:#43008A;" d="M363.24,207.901c0,2.814-2.281,5.096-5.096,5.096c-2.814,0-5.096-2.281-5.096-5.096
						c0-2.814,2.281-5.096,5.096-5.096C360.958,202.805,363.24,205.087,363.24,207.901z"/>
					<path style="fill:#43008A;" d="M377.831,207.901c0,2.814-2.281,5.096-5.096,5.096c-2.814,0-5.096-2.281-5.096-5.096
						c0-2.814,2.281-5.096,5.096-5.096C375.55,202.805,377.831,205.087,377.831,207.901z"/>
					<path style="fill:#43008A;" d="M392.422,207.901c0,2.814-2.281,5.096-5.096,5.096c-2.814,0-5.096-2.281-5.096-5.096
						c0-2.814,2.281-5.096,5.096-5.096C390.141,202.805,392.422,205.087,392.422,207.901z"/>
					<path style="fill:#43008A;" d="M407.014,207.901c0,2.814-2.282,5.096-5.096,5.096c-2.814,0-5.096-2.281-5.096-5.096
						c0-2.814,2.282-5.096,5.096-5.096C404.732,202.805,407.014,205.087,407.014,207.901z"/>
					<path style="fill:#43008A;" d="M421.605,207.901c0,2.814-2.282,5.096-5.096,5.096c-2.815,0-5.096-2.281-5.096-5.096
						c0-2.814,2.281-5.096,5.096-5.096C419.323,202.805,421.605,205.087,421.605,207.901z"/>
				</g>
				<polygon style="fill:#8B2AE3;" points="424.97,230.474 393.72,253.157 402.984,230.474 				"/>
				<g>
					<defs>
						<path id="SVGID_1_" d="M311.477,188.811c9.425,2.72,14.907,12.404,12.244,21.631c-2.663,9.226-12.462,14.501-21.887,11.78
							c-9.425-2.72-14.907-12.405-12.244-21.631C292.253,191.365,302.052,186.091,311.477,188.811z"/>
					</defs>
					<clipPath id="SVGID_00000182495204985703672350000016923437698033078434_">
						<use xlink:href="#SVGID_1_"  style="overflow:visible;"/>
					</clipPath>
					<path style="clip-path:url(#SVGID_00000182495204985703672350000016923437698033078434_);fill:#BC96FF;" d="M311.477,188.811
						c9.425,2.72,14.907,12.404,12.244,21.631c-2.663,9.226-12.462,14.501-21.887,11.78c-9.425-2.72-14.907-12.405-12.244-21.631
						C292.253,191.365,302.052,186.091,311.477,188.811z"/>
					<g style="clip-path:url(#SVGID_00000182495204985703672350000016923437698033078434_);">
						<path style="fill:#FFFFFF;" d="M321.952,233.204l-7.404-18.102c-0.115-0.285-0.287-0.534-0.486-0.739
							c0,0-1.647-2.502-7.409-2.502c-5.757,0-7.404,2.502-7.404,2.502c-0.203,0.206-0.371,0.454-0.486,0.739l-7.403,18.102
							c-0.481,1.179,0.079,2.523,1.26,3.003c0.282,0.118,0.58,0.173,0.873,0.173c0.904,0,1.767-0.539,2.127-1.43l4.006-9.78
							l0.533,13.019l-1.396,21.175c-0.104,1.632,1.13,3.043,2.761,3.15c0.068,0.002,0.13,0.008,0.199,0.008
							c1.547,0,2.849-1.202,2.954-2.768l1.155-20.739c0,0,0-0.826,0.821-0.826c0.826,0,0.826,0.826,0.826,0.826l1.155,20.739
							c0.104,1.566,1.407,2.768,2.954,2.768c0.068,0,0.131-0.005,0.198-0.008c1.631-0.107,2.871-1.519,2.761-3.15l-1.396-21.175
							l0.533-13.019l4.005,9.78c0.361,0.891,1.223,1.43,2.133,1.43c0.288,0,0.586-0.055,0.868-0.173
							C321.873,235.727,322.433,234.383,321.952,233.204z"/>
						<path style="fill:#FFFFFF;" d="M306.653,209.393c3.184,0,5.761-2.58,5.761-5.759c0-3.182-2.577-5.762-5.761-5.762
							c-3.179,0-5.757,2.58-5.757,5.762C300.896,206.813,303.474,209.393,306.653,209.393z"/>
					</g>
				</g>
				<g>
					<path style="fill:#8B2AE3;" d="M389.477,165.753h-39.332c-3.083,0-5.582-2.499-5.582-5.582v-13.364
						c0-3.083,2.499-5.582,5.582-5.582h39.332c3.083,0,5.582,2.499,5.582,5.582v13.364
						C395.059,163.254,392.56,165.753,389.477,165.753z"/>
					<polygon style="fill:#8B2AE3;" points="386.935,165.115 372.376,175.683 376.692,165.115 					"/>
					<g>
						<g style="opacity:0.62;">
							<path style="fill:#43008A;" d="M356.554,156.74c4.184,0,4.191-6.503,0-6.503C352.37,150.237,352.363,156.74,356.554,156.74
								L356.554,156.74z"/>
						</g>
						<g style="opacity:0.62;">
							<path style="fill:#43008A;" d="M370.569,156.74c4.184,0,4.191-6.503,0-6.503C366.385,150.237,366.378,156.74,370.569,156.74
								L370.569,156.74z"/>
						</g>
						<g style="opacity:0.62;">
							<path style="fill:#43008A;" d="M383.474,156.74c4.184,0,4.191-6.503,0-6.503C379.29,150.237,379.283,156.74,383.474,156.74
								L383.474,156.74z"/>
						</g>
					</g>
				</g>
			</g>
			<g>
				<path style="fill:#43008A;" d="M406.484,278.526h-36.503c-2.091,0-3.785-1.695-3.785-3.785v-19.487
					c0-2.091,1.695-3.786,3.786-3.786h36.503c2.091,0,3.785,1.695,3.785,3.786v19.487
					C410.269,276.831,408.574,278.526,406.484,278.526z"/>
				
					<line style="fill:none;stroke:#2D1147;stroke-width:0.6709;stroke-miterlimit:10;" x1="366.195" y1="275.793" x2="382.706" y2="264.283"/>
				
					<line style="fill:none;stroke:#2D1147;stroke-width:0.6709;stroke-miterlimit:10;" x1="410.072" y1="275.793" x2="393.561" y2="264.283"/>
				<path style="fill:#2D1147;" d="M409.202,252.037l-15.627,12.048c-3.155,2.432-7.556,2.425-10.703-0.018l-15.554-12.073
					c-0.15,0.109-0.287,0.233-0.411,0.37l15.631,12.133c1.676,1.301,3.686,1.951,5.697,1.951c2,0,4.001-0.644,5.673-1.933
					l15.695-12.101C409.483,252.276,409.348,252.15,409.202,252.037z"/>
			</g>
			<g>
				<path style="fill:#8B2AE3;" d="M274.797,267.919h23.484c2.2,0,3.983,1.783,3.983,3.982v23.484c0,2.199-1.783,3.982-3.982,3.982
					h-23.484c-2.199,0-3.982-1.783-3.982-3.982v-23.485C270.815,269.702,272.598,267.919,274.797,267.919z"/>
				
					<line style="fill:none;stroke:#43008A;stroke-width:2.2048;stroke-miterlimit:10;" x1="276.725" y1="278.005" x2="296.476" y2="278.005"/>
				
					<line style="fill:none;stroke:#43008A;stroke-width:2.2048;stroke-miterlimit:10;" x1="276.725" y1="282.845" x2="296.476" y2="282.845"/>
				
					<line style="fill:none;stroke:#43008A;stroke-width:2.2048;stroke-miterlimit:10;" x1="276.725" y1="287.685" x2="296.476" y2="287.685"/>
				
					<line style="fill:none;stroke:#43008A;stroke-width:2.2048;stroke-miterlimit:10;" x1="281.686" y1="291.765" x2="291.515" y2="291.765"/>
			</g>
			<path style="fill:#BC96FF;" d="M410.714,164.759c0.934,0.336,1.78,0.661,1.769,0.732l1.31-3.119
				c-1.282,3.73-1.122,7.629,0.197,11.073l-1.073-2.625l-2.019,0.917c-1.27,0.577-1.831,2.073-1.254,3.343l0.842,1.854
				c0.582,1.28,2.098,1.842,3.37,1.243c0.898-0.423,1.726-0.791,1.768-0.733l-1.373-3.361c1.18,2.73,3.098,5.137,5.611,6.89
				l-0.163-0.068l-0.779,2.076c-0.49,1.305,0.171,2.761,1.477,3.251l1.907,0.716c1.316,0.494,2.786-0.181,3.262-1.504
				c0.336-0.934,0.661-1.78,0.732-1.769l-0.167-0.07c1.912,0.363,3.834,0.371,5.688,0.06l0.725,1.596
				c0.577,1.269,2.073,1.831,3.343,1.254l1.854-0.842c1.28-0.582,1.842-2.098,1.243-3.37c-0.235-0.499-0.45-0.971-0.588-1.304
				c1.621-1.118,3.048-2.536,4.188-4.211l1.203,0.452c1.305,0.49,2.761-0.171,3.251-1.477l0.716-1.907
				c0.494-1.316-0.181-2.786-1.504-3.262c-0.384-0.138-0.748-0.273-1.049-0.39c0.329-2.063,0.246-4.131-0.199-6.103l1.064-0.484
				c1.27-0.577,1.831-2.073,1.254-3.343l-0.842-1.855c-0.581-1.28-2.098-1.842-3.37-1.243c-0.414,0.195-0.809,0.376-1.123,0.512
				c-1.205-1.558-2.703-2.906-4.449-3.957l0.51-1.358c0.49-1.305-0.171-2.761-1.477-3.251l-1.907-0.716
				c-1.316-0.494-2.786,0.181-3.262,1.504c-0.238,0.661-0.469,1.272-0.609,1.572c-1.885-0.19-3.762-0.043-5.553,0.405l-0.815-1.794
				c-0.577-1.27-2.073-1.831-3.343-1.254l-1.854,0.842c-1.28,0.581-1.842,2.098-1.243,3.37c0.423,0.898,0.791,1.726,0.733,1.768
				l1.068-0.436c-2.121,1.494-3.902,3.507-5.128,5.939l0.599-1.428l-2.076-0.779c-1.305-0.49-2.761,0.171-3.251,1.477l-0.716,1.907
				C408.716,162.813,409.391,164.283,410.714,164.759z M432.635,158.369c5.114,1.919,7.714,7.642,5.794,12.756
				c-1.919,5.114-7.642,7.714-12.756,5.794c-5.114-1.919-7.714-7.642-5.795-12.756C421.798,159.05,427.521,156.45,432.635,158.369z"
				/>
		</g>
	</g>
</g>
</svg>
